<?xml version="1.0" encoding="UTF-8"?>
<svg xmlns="http://www.w3.org/2000/svg" version="1.1" viewBox="0 0 1200 1200">
  <!-- Generator: Adobe Illustrator 29.4.0, SVG Export Plug-In . SVG Version: 2.1.0 Build 152)  -->
  <defs>
    <style>
      .st0, .st1 {
        fill: #232323;
      }

      .st1 {
        fill-rule: evenodd;
      }

      .st2 {
        fill: #222326;
      }
    </style>
  </defs>
  <g id="Layer_1">
    <path d="M649.5,776.3h-253.1l-27-77.4c-1.7-4.9-6.3-8.1-11.4-8.1H98.8c-6.7,0-12.1,5.4-12.1,12.1v441.4c0,6.7,5.4,12.1,12.1,12.1h550.6c6.7,0,12.1-5.4,12.1-12.1v-355.9c0-6.7-5.4-12.1-12-12.1h0ZM637.4,1132.2H111v-417.2h238.5l27,77.4c1.7,4.9,6.3,8.1,11.4,8.1h249.6v331.7ZM1101.1,43.7h-474.5c-6.7,0-12.1,5.4-12.1,12.1v52.6h-61.3c-6.7,0-12.1,5.4-12.1,12.1v52.6h-61.3c-6.7,0-12.1,5.4-12.1,12.1v516.8c0,6.7,5.5,12.1,12.1,12.1h474.5c6.7,0,12.1-5.4,12.1-12.1v-52.6h61.3c6.7,0,12.1-5.4,12.1-12.1v-52.6s61.3,0,61.3,0c6.7,0,12.1-5.4,12.1-12.1V55.8c0-6.7-5.4-12.1-12.1-12.1h0ZM942.2,689.9h-450.3V197.3h49.2v440c0,6.7,5.4,12.1,12.1,12.1h389v40.5ZM1015.7,625.2h-450.3V132.5h49.2v440c0,6.7,5.4,12.1,12.1,12.1h389s0,40.5,0,40.5ZM1089.1,560.5h-450.3V67.8h450.3v492.7Z"/>
  </g>
  <g id="Layer_2">
    <g>
      <path class="st0" d="M738.3,379.1h43.3l8.8-23.9-19.9-40.7-32.2,64.6Z"/>
      <path class="st0" d="M853.2,346.8l-48.1-96.9-14.6,33.2,45.5,96h32.8l-15.5-32.3Z"/>
      <path class="st1" d="M933.6,379.1c35.8,0,64.9-29.1,64.9-64.9s-29.1-64.9-64.9-64.9-64.9,29.1-64.9,64.9,29.1,64.9,64.9,64.9ZM933.6,353.6c21.8,0,39.4-17.7,39.4-39.4s-17.7-39.4-39.4-39.4-39.4,17.7-39.4,39.4,17.7,39.4,39.4,39.4Z"/>
    </g>
  </g>
  <g id="Layer_3">
    <g>
      <path class="st2" d="M376.7,1009.5c-.5-.9-.9-2-1.2-3.2-.3-1.2-.6-2.4-.8-3.8-1.1,1.2-2.3,2.3-3.6,3.3s-2.9,2-4.6,2.7-3.5,1.4-5.6,1.8c-2,.5-4.3.6-6.7.6-3.8,0-7.4-.6-10.6-1.7s-5.9-2.7-8.4-4.7c-2.3-2-4.1-4.4-5.5-7.1s-2-5.8-2-9c0-7.9,2.9-14.1,8.8-18.4,5.9-4.4,14.7-6.5,26.4-6.5h10.8v-4.4c0-3.6-1.2-6.5-3.5-8.7-2.4-2.1-5.8-3.2-10.2-3.2s-6.8.9-8.7,2.6c-1.8,1.7-2.7,4-2.7,6.8h-19.3c0-3.2.8-6.2,2.1-9.1,1.4-2.9,3.5-5.5,6.2-7.6,2.7-2.1,6.1-4,10-5.2,4-1.2,8.4-2,13.5-2s8.8.6,12.8,1.7c4,1.1,7.3,2.7,10.2,5,2.9,2.1,5.2,4.9,6.7,8.2,1.7,3.3,2.4,7.1,2.4,11.5v32.4c0,4.1.3,7.4.8,10s1.2,4.9,2.3,6.8v1.2h-19.8v-.3ZM358.3,995.9c2,0,3.8-.3,5.5-.8s3.2-1.1,4.6-1.8,2.4-1.5,3.5-2.6c.9-.9,1.7-2,2.3-2.9v-12.9h-9.9c-3,0-5.6.3-7.7.9s-4,1.4-5.2,2.4c-1.4,1.1-2.3,2.3-3,3.8-.6,1.5-.9,3-.9,4.7,0,2.6.9,4.7,2.7,6.5,1.7,1.7,4.4,2.6,8.2,2.6Z"/>
      <path class="st2" d="M361.1,1075c-55.7,0-101.1-45.3-101.1-101.1s45.3-101.1,101.1-101.1,101.1,45.3,101.1,101.1-45.3,101.1-101.1,101.1ZM361.1,887.5c-47.6,0-86.4,38.8-86.4,86.4s38.8,86.4,86.4,86.4,86.4-38.8,86.4-86.4-38.8-86.4-86.4-86.4Z"/>
    </g>
  </g>
</svg>