<?xml version="1.0" encoding="UTF-8"?>
<svg id="Layer_1" xmlns="http://www.w3.org/2000/svg" version="1.1" viewBox="0 0 157 44">
  <!-- Generator: Adobe Illustrator 29.4.0, SVG Export Plug-In . SVG Version: 2.1.0 Build 152)  -->
  <defs>
    <style>
      .st0, .st1 {
        fill: #232323;
      }

      .st1 {
        fill-rule: evenodd;
      }
    </style>
  </defs>
  <path class="st0" d="M44.6,38.9h11.3l2.3-6.2-5.2-10.6-8.4,16.8Z"/>
  <path class="st0" d="M74.5,30.5l-12.5-25.2-3.8,8.6,11.9,25h8.5l-4.1-8.4Z"/>
  <path class="st1" d="M95.5,38.9c9.3,0,16.9-7.6,16.9-16.9s-7.6-16.9-16.9-16.9-16.9,7.6-16.9,16.9,7.6,16.9,16.9,16.9ZM95.5,32.3c5.7,0,10.3-4.6,10.3-10.3s-4.6-10.3-10.3-10.3-10.3,4.6-10.3,10.3,4.6,10.3,10.3,10.3Z"/>
</svg>