<?xml version="1.0" encoding="UTF-8"?>
<svg id="Layer_2" data-name="Layer 2" xmlns="http://www.w3.org/2000/svg" viewBox="0 0 157 44">
  <g id="Layer_1-2" data-name="Layer 1-2">
    <g>
      <g>
        <g>
          <path d="M73.69,26.6c.17,0,.33.01.5.03s.3.05.41.09l-.08.63c-.15-.03-.31-.06-.46-.08s-.31-.03-.47-.03c-.56,0-1.03.13-1.42.4-.39.27-.66.67-.82,1.22v3.82s-.68,0-.68,0v-5.98h.63l.04,1.04v.12c.24-.39.57-.7.97-.93.4-.23.86-.34,1.39-.34h0Z"/>
          <path d="M79.19,32.79c-.42,0-.8-.08-1.14-.23-.34-.15-.64-.36-.88-.63-.24-.27-.43-.58-.57-.93s-.2-.73-.21-1.13v-.24c0-.43.07-.82.21-1.19.14-.37.33-.69.57-.96.24-.27.52-.49.84-.64.32-.16.67-.23,1.04-.23.4,0,.75.07,1.05.22.31.14.56.34.77.59s.37.54.47.87c.11.33.16.69.17,1.07v.4h-4.47v.13c0,.31.06.61.16.9.1.29.25.54.44.75s.41.39.68.52c.27.13.56.2.88.2.37,0,.7-.06,1-.2.3-.14.55-.34.76-.61l.42.32c-.11.15-.24.3-.39.43s-.32.24-.51.33-.39.16-.61.22-.45.08-.7.08h0ZM79.06,27.16c-.27,0-.52.05-.74.15-.22.1-.42.24-.59.42-.17.18-.31.39-.42.64-.11.24-.19.51-.23.8h3.78v-.07c0-.25-.05-.49-.14-.72-.08-.23-.2-.44-.35-.62-.15-.18-.34-.33-.56-.44s-.47-.17-.76-.17h0Z"/>
          <path d="M87.71,31.16c0-.18-.05-.34-.14-.48s-.22-.25-.38-.35c-.16-.1-.35-.18-.56-.25s-.43-.12-.67-.17c-.29-.06-.57-.13-.83-.21s-.51-.19-.72-.32c-.21-.13-.38-.29-.5-.47-.13-.19-.19-.41-.19-.69,0-.26.06-.49.19-.69.13-.2.3-.37.51-.51.21-.14.45-.25.72-.32.27-.07.55-.11.83-.11.32,0,.63.04.91.12s.53.19.74.35c.21.15.38.34.51.56.12.22.19.47.2.76h-.66c0-.19-.06-.36-.15-.52s-.22-.28-.38-.38-.34-.18-.54-.24-.41-.08-.62-.08c-.2,0-.39.02-.58.06-.19.04-.36.11-.51.19-.15.09-.27.19-.36.33s-.14.28-.14.46c0,.19.04.35.13.47s.21.23.37.32.34.16.54.22c.21.06.43.11.67.16.3.06.59.14.86.23.27.09.52.2.73.34s.38.3.5.49c.12.19.18.43.18.7s-.07.52-.2.73c-.13.21-.31.38-.53.52-.22.14-.47.24-.75.31s-.57.1-.87.1c-.34,0-.65-.04-.95-.12-.3-.08-.56-.2-.78-.35s-.41-.34-.54-.56c-.14-.22-.21-.47-.22-.75h.66c.02.24.09.43.21.59.12.16.27.28.44.38.17.09.37.16.57.2.21.04.41.06.61.06s.4-.02.6-.06c.2-.04.38-.11.54-.19.16-.09.29-.2.39-.33.1-.13.15-.3.16-.48h0Z"/>
          <path d="M92.99,32.79c-.42,0-.8-.08-1.14-.23-.34-.15-.64-.36-.88-.63-.24-.27-.43-.58-.57-.93-.13-.36-.2-.73-.21-1.13v-.24c0-.43.07-.82.21-1.19.14-.37.33-.69.57-.96.24-.27.52-.49.84-.64.32-.16.67-.23,1.04-.23.4,0,.75.07,1.05.22.31.14.56.34.77.59s.37.54.47.87c.11.33.16.69.17,1.07v.4h-4.47v.13c0,.31.06.61.16.9.1.29.25.54.44.75.19.22.41.39.68.52.27.13.56.2.88.2.37,0,.7-.06,1-.2.3-.14.55-.34.76-.61l.42.32c-.11.15-.24.3-.39.43s-.32.24-.51.33-.39.16-.61.22-.45.08-.7.08h0ZM92.86,27.16c-.27,0-.52.05-.74.15-.22.1-.42.24-.59.42-.17.18-.31.39-.42.64-.11.24-.19.51-.23.8h3.78v-.07c0-.25-.05-.49-.14-.72-.08-.23-.2-.44-.35-.62-.15-.18-.34-.33-.56-.44s-.47-.17-.76-.17h0Z"/>
          <path d="M101.45,32.68c-.04-.12-.07-.26-.09-.41-.02-.15-.04-.3-.04-.46-.11.14-.25.27-.4.39s-.32.22-.49.31c-.18.09-.37.15-.58.2s-.42.07-.65.07c-.28,0-.54-.04-.78-.12-.24-.08-.45-.19-.63-.34s-.32-.33-.42-.53-.15-.44-.15-.7c0-.34.08-.63.23-.87s.36-.43.61-.58c.26-.15.56-.26.89-.33s.69-.11,1.07-.11h1.29v-.68c0-.22-.05-.42-.13-.59-.08-.17-.2-.32-.35-.43s-.32-.2-.52-.26c-.2-.06-.42-.09-.65-.09-.21,0-.42.03-.61.08s-.36.13-.51.24-.27.23-.36.38c-.09.15-.14.32-.15.51h-.66c.01-.26.08-.49.2-.71.12-.21.29-.4.5-.56.21-.16.45-.28.73-.37s.58-.13.89-.13.61.04.89.12.52.2.72.36.37.36.49.61.18.53.18.85v2.89c0,.2.02.4.05.6s.08.4.13.58v.07s-.7,0-.7,0h0ZM99.27,32.21c.23,0,.45-.02.67-.08.21-.06.41-.14.58-.25s.33-.23.47-.38c.14-.15.24-.3.32-.48v-1.31h-1.2c-.29,0-.57.02-.84.07s-.51.12-.71.22c-.21.1-.37.24-.49.41-.12.17-.18.38-.18.63,0,.18.04.34.11.49.07.14.17.27.3.37.12.1.27.18.44.23s.35.08.55.08h0Z"/>
          <path d="M108.19,26.6c.17,0,.33.01.5.03s.3.05.41.09l-.08.63c-.15-.03-.31-.06-.46-.08s-.31-.03-.47-.03c-.56,0-1.03.13-1.42.4-.39.27-.66.67-.82,1.22v3.82s-.68,0-.68,0v-5.98h.63l.04,1.04v.12c.24-.39.57-.7.97-.93.4-.23.86-.34,1.39-.34h0Z"/>
          <path d="M113.56,32.24c.22,0,.43-.03.63-.1.2-.06.38-.16.53-.28s.28-.27.38-.44.15-.37.17-.58h.64c-.01.28-.09.55-.22.78-.13.24-.31.45-.52.62-.21.17-.46.31-.73.41-.28.1-.57.15-.87.15-.44,0-.82-.08-1.14-.25s-.59-.39-.81-.66c-.22-.28-.38-.59-.49-.95-.11-.36-.16-.73-.16-1.12v-.23c0-.39.05-.76.16-1.12.11-.36.27-.68.49-.95.22-.28.48-.5.81-.66.32-.17.7-.25,1.14-.25.33,0,.64.05.92.16s.53.25.73.44c.21.19.37.41.49.67.12.26.19.54.2.85h-.64c-.01-.22-.06-.43-.15-.62-.09-.19-.21-.36-.36-.5-.15-.14-.33-.25-.53-.33-.2-.08-.43-.12-.67-.12-.35,0-.64.07-.89.21s-.44.32-.6.55-.27.49-.34.78c-.07.29-.11.58-.11.88v.23c0,.3.04.6.11.89.07.29.18.55.34.78.15.23.35.41.6.55s.54.21.89.21h0Z"/>
          <path d="M118.7,27.86c.21-.38.49-.69.84-.92.35-.23.75-.34,1.2-.35.33,0,.62.05.87.15.25.1.46.25.64.44.17.19.3.43.39.71.09.28.14.6.14.96v3.82h-.66v-3.82c0-.27-.03-.5-.09-.71s-.16-.39-.28-.53-.29-.26-.48-.33c-.19-.08-.42-.12-.67-.12-.21,0-.41.03-.6.1s-.37.16-.53.28c-.16.12-.31.26-.43.42-.13.16-.23.34-.31.53v4.19h-.66v-8.48h.66v3.66h0Z"/>
        </g>
        <g>
          <path d="M70.92,21.43v-5.67h-1.84v-1.33h1.84v-.38c0-.46.07-.87.22-1.22.15-.35.36-.65.63-.89.27-.24.6-.42.99-.55.39-.12.82-.18,1.3-.18.15,0,.3,0,.44.02.14.01.28.02.41.04.13.02.27.04.4.06.14.02.28.05.42.07l-.12,1.41c-.16-.03-.35-.06-.56-.09-.21-.03-.45-.04-.73-.04-.56,0-.97.12-1.22.36-.25.24-.38.58-.38,1.02v.38h2.52v1.33h-2.52v5.67h-1.81Z"/>
          <path d="M76.88,17.87c0-.51.07-.98.22-1.41s.36-.81.64-1.13.63-.57,1.03-.75.87-.27,1.4-.27.99.09,1.4.27c.41.18.76.43,1.04.75.28.32.5.7.64,1.13.15.43.22.9.22,1.41v.14c0,.51-.07.99-.22,1.42-.15.43-.36.81-.64,1.13-.28.32-.63.57-1.03.75-.41.18-.88.27-1.4.27s-.99-.09-1.41-.27c-.41-.18-.76-.43-1.04-.75-.28-.32-.5-.7-.64-1.13s-.22-.91-.22-1.42v-.14h0ZM78.68,18c0,.29.03.57.08.82s.14.48.27.67.28.34.47.46c.19.11.42.17.7.17s.49-.06.68-.17c.19-.11.34-.26.46-.46.12-.19.21-.42.26-.67s.08-.53.08-.82v-.14c0-.28-.03-.55-.08-.81-.06-.25-.14-.48-.26-.67-.12-.19-.27-.35-.46-.46-.19-.11-.42-.17-.69-.17s-.5.06-.69.17c-.19.11-.35.27-.47.46-.12.19-.21.42-.27.67-.06.25-.08.52-.08.81v.14Z"/>
          <path d="M90.1,14.3c.27,0,.52.02.75.06.23.04.42.08.56.12l-.27,1.79c-.24-.06-.48-.1-.73-.13-.25-.03-.48-.04-.71-.04-.5,0-.91.1-1.21.29s-.53.47-.68.83v4.2h-1.8v-7h1.68l.08,1.14c.28-.4.63-.71,1.02-.93.4-.23.83-.34,1.3-.34h0Z"/>
          <path d="M97.5,19.24l.61-4.81h1.65l-1.25,7h-1.58l-.92-4.45-.89,4.45h-1.58l-1.25-7h1.64l.61,4.83.88-4.83h1.2l.88,4.81h0Z"/>
          <path d="M105.35,21.43c-.04-.09-.08-.19-.11-.3s-.06-.23-.08-.36c-.1.11-.21.21-.34.3-.13.1-.27.18-.43.25-.16.07-.33.13-.52.17-.19.04-.39.06-.61.06-.36,0-.69-.05-.99-.16-.3-.1-.56-.25-.77-.43s-.38-.41-.5-.66-.18-.54-.18-.84c0-.74.28-1.31.82-1.71s1.37-.61,2.46-.61h1v-.41c0-.34-.11-.6-.33-.8-.22-.2-.54-.29-.95-.29-.37,0-.63.08-.8.24-.17.16-.25.37-.25.63h-1.8c0-.3.07-.58.2-.85.13-.27.32-.5.58-.7.25-.2.56-.36.92-.48s.78-.18,1.25-.18c.42,0,.82.05,1.18.16s.68.26.95.46c.27.2.48.46.63.77.15.31.23.67.23,1.07v3c0,.38.02.69.07.93.05.25.12.46.21.63v.11h-1.82ZM103.63,20.17c.18,0,.35-.02.5-.06s.3-.1.42-.17.23-.15.32-.24c.09-.09.16-.18.21-.27v-1.2h-.92c-.28,0-.52.03-.72.08-.2.05-.36.13-.48.23-.12.1-.22.21-.28.35s-.09.28-.09.44c0,.24.08.44.26.6.17.16.43.24.77.24h0Z"/>
          <path d="M113.95,14.3c.27,0,.52.02.75.06.23.04.42.08.56.12l-.27,1.79c-.24-.06-.48-.1-.73-.13-.25-.03-.48-.04-.71-.04-.5,0-.91.1-1.21.29s-.53.47-.68.83v4.2h-1.8v-7h1.68l.08,1.14c.28-.4.63-.71,1.02-.93.4-.23.83-.34,1.3-.34h0Z"/>
          <path d="M116.69,17.88c0-.53.06-1.02.18-1.46.12-.44.3-.82.54-1.13.24-.31.52-.56.86-.73.34-.17.73-.26,1.16-.26.37,0,.69.07.97.2.28.13.52.32.74.56v-3.56h1.81v9.94h-1.62l-.09-.73c-.22.27-.48.48-.78.63-.3.15-.64.23-1.03.23-.43,0-.81-.09-1.15-.27-.34-.18-.63-.43-.86-.74-.24-.31-.42-.69-.54-1.12-.13-.43-.19-.9-.19-1.41v-.14h0ZM118.49,18.02c0,.29.02.57.07.82s.13.47.24.66.26.34.43.44c.18.11.39.16.65.16.31,0,.57-.07.77-.2.21-.13.37-.32.49-.55v-2.83c-.12-.24-.28-.42-.48-.55-.2-.13-.46-.2-.76-.2-.25,0-.47.06-.65.17s-.32.26-.44.45-.19.42-.25.67c-.05.26-.08.53-.08.82v.14h0Z"/>
        </g>
      </g>
      <g>
        <path d="M48.33,7.72c7.89,0,14.28,6.39,14.28,14.28s-6.39,14.28-14.28,14.28-14.28-6.4-14.28-14.28,6.4-14.28,14.28-14.28ZM60.32,22c0-6.62-5.37-11.99-11.99-11.99s-11.99,5.37-11.99,11.99,5.37,11.99,11.99,11.99,11.99-5.37,11.99-11.99h0Z"/>
        <path d="M52.5,13.62v2.48h-.16c-.51-.05-.88-.07-1.26-.07-.57.01-1.12.1-1.43.48l-.04.05c-.05.06-.07.08-.08.11s-.03.05-.07.12l-.03.06c-.1.19-.14.42-.14.66v1.29h2.63v2.55h-2.63v10.34h-3.11v-10.34h-1.97v-2.55h1.97v-1.17c0-.7.08-1.42.38-2.07.23-.5.6-1.15,1.46-1.59.86-.44,2.2-.66,4.35-.36l.13.02h0Z"/>
      </g>
    </g>
  </g>
</svg>