<svg width="173" height="32" viewBox="0 0 173 32" fill="none" xmlns="http://www.w3.org/2000/svg">
<g clip-path="url(#clip0_9315_716)">
<path d="M14.8369 1.90039V8.19434C14.8427 8.1854 14.8487 8.17591 14.8545 8.16699C16.3688 5.84854 18.5213 4.04106 21.04 2.97363C23.5591 1.90615 26.3314 1.62663 29.0059 2.1709C31.6799 2.71514 34.136 4.05835 36.0635 6.03027C37.9911 8.0023 39.3033 10.5153 39.835 13.25C40.3667 15.9847 40.0938 18.8195 39.0508 21.3955C38.0078 23.9715 36.2413 26.1733 33.9746 27.7227C31.7078 29.2723 29.0422 30.0996 26.3154 30.0996H25.1631V23.8057C25.1573 23.8146 25.1513 23.8241 25.1455 23.833C23.6312 26.1514 21.4787 27.959 18.96 29.0264C16.4409 30.0938 13.6686 30.3733 10.9941 29.8291C8.32012 29.2848 5.86398 27.9416 3.93652 25.9697C2.00898 23.9977 0.696712 21.4847 0.165039 18.75C-0.36661 16.0153 -0.0937544 13.1806 0.949219 10.6045C1.99226 8.02855 3.75875 5.8268 6.02539 4.27734C8.29222 2.72771 10.9578 1.90039 13.6846 1.90039H14.8369ZM12.5312 4.31445C10.6689 4.50686 8.87403 5.16172 7.30762 6.23242C5.41997 7.52279 3.94822 9.35742 3.0791 11.5039C2.20999 13.6505 1.9827 16.013 2.42578 18.292C2.86887 20.5709 3.96288 22.6641 5.56836 24.3066C7.17387 25.9491 9.21908 27.0675 11.4453 27.5205C13.6715 27.9735 15.979 27.7412 18.0762 26.8525C19.9769 26.0471 21.6266 24.7343 22.8584 23.0576C21.9777 23.4312 21.0126 23.6387 20 23.6387C15.8732 23.6387 12.5312 20.2164 12.5312 16V4.31445ZM28.5547 4.47949C26.3285 4.02647 24.021 4.25877 21.9238 5.14746C20.0232 5.95284 18.3724 7.2648 17.1406 8.94141C18.0214 8.56775 18.9873 8.36133 20 8.36133C24.1268 8.36133 27.4688 11.7836 27.4688 16V27.6846C29.3311 27.4921 31.126 26.8383 32.6924 25.7676C34.5801 24.4773 36.0519 22.6426 36.9209 20.4961C37.79 18.3495 38.0173 15.987 37.5742 13.708C37.1312 11.4291 36.0371 9.33596 34.4316 7.69336C32.8261 6.05092 30.7809 4.93252 28.5547 4.47949ZM14.8428 16.208C14.9469 18.9624 17.1078 21.1708 19.7949 21.2783V19.3604C19.4435 17.797 18.2417 16.568 16.7168 16.208H14.8428ZM23.2832 16.208C21.7582 16.5679 20.5566 17.797 20.2051 19.3604V21.2783C22.8922 21.1708 25.0531 18.9624 25.1572 16.208H23.2832ZM20.2051 12.6387C20.5562 14.2022 21.7574 15.4317 23.2822 15.792H25.1572C25.0531 13.0376 22.8922 10.8282 20.2051 10.7207V12.6387ZM19.7949 10.7207C17.1079 10.8281 14.9469 13.0376 14.8428 15.792H16.7178C18.2426 15.4317 19.4439 14.2022 19.7949 12.6387V10.7207Z" fill="white" stroke="white" stroke-width="0.2"/>
</g>
<path d="M49.8273 24V7.008H56.6673C57.5153 7.008 58.3233 7.096 59.0913 7.272C59.8753 7.432 60.5793 7.712 61.2033 8.112C61.8273 8.512 62.3153 9.072 62.6673 9.792C63.0353 10.496 63.2193 11.4 63.2193 12.504C63.2193 13.32 63.0833 14.056 62.8113 14.712C62.5393 15.368 62.1393 15.928 61.6113 16.392C61.0833 16.856 60.4513 17.216 59.7153 17.472L63.4833 24H59.6193L56.3073 18.024H53.2593V24H49.8273ZM53.2593 14.976H56.4273C56.9233 14.976 57.3713 14.936 57.7713 14.856C58.1873 14.76 58.5393 14.616 58.8273 14.424C59.1313 14.232 59.3633 13.976 59.5233 13.656C59.6993 13.336 59.7873 12.944 59.7873 12.48C59.8033 11.888 59.6753 11.432 59.4033 11.112C59.1473 10.776 58.7793 10.544 58.2993 10.416C57.8353 10.272 57.2833 10.2 56.6433 10.2H53.2593V14.976ZM71.4438 24.168C70.1158 24.168 68.9878 23.904 68.0598 23.376C67.1318 22.848 66.4198 22.104 65.9238 21.144C65.4278 20.168 65.1798 19.032 65.1798 17.736C65.1798 16.424 65.4358 15.28 65.9478 14.304C66.4598 13.312 67.1798 12.536 68.1078 11.976C69.0518 11.416 70.1638 11.136 71.4438 11.136C72.4038 11.136 73.2438 11.296 73.9638 11.616C74.6998 11.936 75.3158 12.384 75.8118 12.96C76.3238 13.536 76.6998 14.208 76.9398 14.976C77.1958 15.728 77.3158 16.544 77.2998 17.424C77.2998 17.648 77.2918 17.864 77.2758 18.072C77.2598 18.28 77.2278 18.488 77.1798 18.696H68.5158C68.5638 19.176 68.6998 19.616 68.9238 20.016C69.1478 20.416 69.4598 20.736 69.8598 20.976C70.2758 21.2 70.7878 21.312 71.3958 21.312C71.7958 21.312 72.1638 21.272 72.4998 21.192C72.8358 21.096 73.1238 20.952 73.3638 20.76C73.6038 20.568 73.7718 20.344 73.8678 20.088H77.1798C76.9718 21.032 76.5798 21.808 76.0038 22.416C75.4438 23.024 74.7638 23.472 73.9638 23.76C73.1638 24.032 72.3238 24.168 71.4438 24.168ZM68.5878 16.344H74.0838C74.0678 15.912 73.9558 15.512 73.7478 15.144C73.5558 14.76 73.2598 14.456 72.8598 14.232C72.4758 13.992 71.9798 13.872 71.3718 13.872C70.7638 13.872 70.2518 13.992 69.8358 14.232C69.4358 14.472 69.1318 14.784 68.9238 15.168C68.7318 15.536 68.6198 15.928 68.5878 16.344ZM85.2005 24C84.1445 24 83.2565 23.872 82.5365 23.616C81.8325 23.36 81.2965 22.928 80.9285 22.32C80.5765 21.696 80.4005 20.848 80.4005 19.776V14.352H78.5285V11.352H80.4005V7.968H83.7605V11.352H86.5205V14.352H83.7605V19.296C83.7605 19.824 83.8565 20.24 84.0485 20.544C84.2405 20.848 84.6725 21 85.3445 21H86.4005V24H85.2005ZM88.2536 24V11.352H91.2776L91.4936 12.864C91.8136 12.384 92.1736 12.024 92.5736 11.784C92.9736 11.528 93.3896 11.36 93.8216 11.28C94.2536 11.184 94.6936 11.136 95.1416 11.136C95.3496 11.136 95.5416 11.144 95.7176 11.16C95.8936 11.16 96.0216 11.16 96.1016 11.16V14.4H95.3096C94.5576 14.4 93.9016 14.528 93.3416 14.784C92.7816 15.04 92.3496 15.44 92.0456 15.984C91.7576 16.528 91.6136 17.224 91.6136 18.072V24H88.2536ZM103.345 24.168C102.065 24.168 100.945 23.912 99.9851 23.4C99.0251 22.872 98.2811 22.128 97.7531 21.168C97.2251 20.192 96.9611 19.04 96.9611 17.712C96.9611 16.352 97.2251 15.184 97.7531 14.208C98.2971 13.216 99.0491 12.456 100.009 11.928C100.969 11.4 102.073 11.136 103.321 11.136C104.601 11.136 105.713 11.408 106.657 11.952C107.601 12.496 108.337 13.256 108.865 14.232C109.393 15.208 109.657 16.376 109.657 17.736C109.657 19.064 109.393 20.216 108.865 21.192C108.353 22.152 107.625 22.888 106.681 23.4C105.753 23.912 104.641 24.168 103.345 24.168ZM103.297 21.096C104.033 21.096 104.625 20.936 105.073 20.616C105.521 20.296 105.841 19.88 106.033 19.368C106.241 18.84 106.345 18.288 106.345 17.712C106.345 17.136 106.241 16.584 106.033 16.056C105.841 15.528 105.521 15.096 105.073 14.76C104.641 14.408 104.049 14.232 103.297 14.232C102.577 14.232 101.993 14.408 101.545 14.76C101.097 15.096 100.769 15.528 100.561 16.056C100.369 16.584 100.273 17.136 100.273 17.712C100.273 18.304 100.369 18.856 100.561 19.368C100.769 19.88 101.097 20.296 101.545 20.616C101.993 20.936 102.577 21.096 103.297 21.096ZM114.928 24L110.488 11.352H114.16L117.184 21.264L120.184 11.352H123.88L119.44 24H114.928ZM130.975 24.168C129.647 24.168 128.519 23.904 127.591 23.376C126.663 22.848 125.951 22.104 125.455 21.144C124.959 20.168 124.711 19.032 124.711 17.736C124.711 16.424 124.967 15.28 125.479 14.304C125.991 13.312 126.711 12.536 127.639 11.976C128.583 11.416 129.695 11.136 130.975 11.136C131.935 11.136 132.775 11.296 133.495 11.616C134.231 11.936 134.847 12.384 135.343 12.96C135.855 13.536 136.231 14.208 136.471 14.976C136.727 15.728 136.847 16.544 136.831 17.424C136.831 17.648 136.823 17.864 136.807 18.072C136.791 18.28 136.759 18.488 136.711 18.696H128.047C128.095 19.176 128.231 19.616 128.455 20.016C128.679 20.416 128.991 20.736 129.391 20.976C129.807 21.2 130.319 21.312 130.927 21.312C131.327 21.312 131.695 21.272 132.031 21.192C132.367 21.096 132.655 20.952 132.895 20.76C133.135 20.568 133.303 20.344 133.399 20.088H136.711C136.503 21.032 136.111 21.808 135.535 22.416C134.975 23.024 134.295 23.472 133.495 23.76C132.695 24.032 131.855 24.168 130.975 24.168ZM128.119 16.344H133.615C133.599 15.912 133.487 15.512 133.279 15.144C133.087 14.76 132.791 14.456 132.391 14.232C132.007 13.992 131.511 13.872 130.903 13.872C130.295 13.872 129.783 13.992 129.367 14.232C128.967 14.472 128.663 14.784 128.455 15.168C128.263 15.536 128.151 15.928 128.119 16.344ZM138.996 24V11.352H142.02L142.236 12.864C142.556 12.384 142.916 12.024 143.316 11.784C143.716 11.528 144.132 11.36 144.564 11.28C144.996 11.184 145.436 11.136 145.884 11.136C146.092 11.136 146.284 11.144 146.46 11.16C146.636 11.16 146.764 11.16 146.844 11.16V14.4H146.052C145.3 14.4 144.644 14.528 144.084 14.784C143.524 15.04 143.092 15.44 142.788 15.984C142.5 16.528 142.356 17.224 142.356 18.072V24H138.996ZM153.127 24.168C152.535 24.168 151.927 24.104 151.303 23.976C150.679 23.848 150.103 23.632 149.575 23.328C149.047 23.008 148.599 22.584 148.231 22.056C147.863 21.512 147.623 20.84 147.511 20.04H150.919C151.015 20.328 151.183 20.576 151.423 20.784C151.679 20.992 151.967 21.144 152.287 21.24C152.623 21.336 152.959 21.384 153.295 21.384C153.519 21.384 153.743 21.368 153.967 21.336C154.191 21.304 154.399 21.24 154.591 21.144C154.783 21.048 154.935 20.928 155.047 20.784C155.159 20.624 155.215 20.424 155.215 20.184C155.215 19.928 155.135 19.728 154.975 19.584C154.815 19.44 154.591 19.328 154.303 19.248C154.015 19.152 153.687 19.064 153.319 18.984C152.663 18.84 151.959 18.68 151.207 18.504C150.455 18.328 149.807 18.072 149.263 17.736C149.039 17.576 148.839 17.4 148.663 17.208C148.487 17.016 148.343 16.8 148.231 16.56C148.119 16.32 148.031 16.072 147.967 15.816C147.903 15.544 147.871 15.256 147.871 14.952C147.871 14.264 148.015 13.68 148.303 13.2C148.607 12.704 149.007 12.304 149.503 12C149.999 11.696 150.551 11.48 151.159 11.352C151.767 11.208 152.391 11.136 153.031 11.136C153.895 11.136 154.695 11.28 155.431 11.568C156.167 11.84 156.775 12.272 157.255 12.864C157.735 13.44 158.031 14.192 158.143 15.12H154.927C154.863 14.768 154.647 14.488 154.279 14.28C153.911 14.056 153.455 13.944 152.911 13.944C152.719 13.944 152.511 13.96 152.287 13.992C152.079 14.024 151.887 14.08 151.711 14.16C151.535 14.24 151.391 14.352 151.279 14.496C151.167 14.624 151.111 14.8 151.111 15.024C151.111 15.2 151.159 15.36 151.255 15.504C151.367 15.648 151.519 15.768 151.711 15.864C151.919 15.96 152.167 16.048 152.455 16.128C152.999 16.256 153.543 16.376 154.087 16.488C154.647 16.584 155.143 16.688 155.575 16.8C156.103 16.912 156.583 17.096 157.015 17.352C157.463 17.608 157.823 17.96 158.095 18.408C158.383 18.84 158.527 19.408 158.527 20.112C158.527 20.912 158.367 21.576 158.047 22.104C157.727 22.616 157.295 23.024 156.751 23.328C156.223 23.632 155.639 23.848 154.999 23.976C154.375 24.104 153.751 24.168 153.127 24.168ZM166.272 24.168C164.944 24.168 163.816 23.904 162.888 23.376C161.96 22.848 161.248 22.104 160.752 21.144C160.256 20.168 160.008 19.032 160.008 17.736C160.008 16.424 160.264 15.28 160.776 14.304C161.288 13.312 162.008 12.536 162.936 11.976C163.88 11.416 164.992 11.136 166.272 11.136C167.232 11.136 168.072 11.296 168.792 11.616C169.528 11.936 170.144 12.384 170.64 12.96C171.152 13.536 171.528 14.208 171.768 14.976C172.024 15.728 172.144 16.544 172.128 17.424C172.128 17.648 172.12 17.864 172.104 18.072C172.088 18.28 172.056 18.488 172.008 18.696H163.344C163.392 19.176 163.528 19.616 163.752 20.016C163.976 20.416 164.288 20.736 164.688 20.976C165.104 21.2 165.616 21.312 166.224 21.312C166.624 21.312 166.992 21.272 167.328 21.192C167.664 21.096 167.952 20.952 168.192 20.76C168.432 20.568 168.6 20.344 168.696 20.088H172.008C171.8 21.032 171.408 21.808 170.832 22.416C170.272 23.024 169.592 23.472 168.792 23.76C167.992 24.032 167.152 24.168 166.272 24.168ZM163.416 16.344H168.912C168.896 15.912 168.784 15.512 168.576 15.144C168.384 14.76 168.088 14.456 167.688 14.232C167.304 13.992 166.808 13.872 166.2 13.872C165.592 13.872 165.08 13.992 164.664 14.232C164.264 14.472 163.96 14.784 163.752 15.168C163.56 15.536 163.448 15.928 163.416 16.344Z" fill="white"/>
<defs>
<clipPath id="clip0_9315_716">
<rect width="40" height="28" fill="white" transform="translate(0 2)"/>
</clipPath>
</defs>
</svg>
