<?xml version="1.0" encoding="UTF-8"?>
<svg id="Layer_1" xmlns="http://www.w3.org/2000/svg" version="1.1" viewBox="0 0 157 44">
  <!-- Generator: Adobe Illustrator 29.4.0, SVG Export Plug-In . SVG Version: 2.1.0 Build 152)  -->
  <g>
    <ellipse cx="18.1" cy="14.3" rx="1.8" ry="1.8"/>
    <path d="M14.4,24.2c2.6-.6,3.1,3.1.9,3.5s-2.8-3.1-.9-3.5Z"/>
    <ellipse cx="20.8" cy="27.5" rx="1.8" ry="1.8"/>
    <ellipse cx="16.5" cy="20.1" rx="1.8" ry="1.8"/>
    <ellipse cx="10.6" cy="18.3" rx="1.8" ry="1.8"/>
    <ellipse cx="13.4" cy="31.8" rx="1.8" ry="1.8"/>
  </g>
  <g id="_x38_ilgPP.tif">
    <g>
      <path d="M29.7,15l2.2-.2c.1,0,.3.4.3.4v13.7c-.6.4-1.8.3-2.5,0v-14Z"/>
      <path d="M61.5,24.9h-6.4c-.4,2.3,1.2,2.8,3.2,2.4s2.3-1.7,3,.6c-2,2.3-7.5,2.1-8.4-1.1s-.2-4.9,0-5.7c.9-2.4,4-3,6.2-2.2s2.8,4,2.3,6.1ZM59.4,23.2c.6-3.5-4.9-3.5-4.3,0h4.3Z"/>
      <path d="M111.4,24.9h-6.4c-.4,2.3,1.2,2.8,3.2,2.4s2.3-1.7,3,.6c-2,2.3-7.5,2.1-8.4-1.1s-.2-4.9,0-5.7c.9-2.4,4-3,6.2-2.2s2.8,4,2.3,6.1ZM105,23.2h4.3c.6-3.5-4.9-3.6-4.3,0Z"/>
      <path d="M73.4,24.9c-.5,3.4,3.5,2.7,5.4,1.5l.8,1.4c-2.1,2.6-8,2.3-8.5-1.5s-.2-4.6.4-5.7c1.5-3.1,8.3-2.4,8.3,1.4v3h-6.4ZM73.4,23.2h4.3c.4-3.5-4.8-3.6-4.3,0Z"/>
      <path d="M41.8,29.2v-6.7c0,0-.4-1-.4-1-.8-1.1-2.9-.8-4-.7v8.5h-2.3v-9.8c4-1.4,8.6-1.6,9,3.7s.2,5,0,5.7-1.6.3-2.3.4Z"/>
      <path d="M82.1,19.7c2.1-1.6,7.3-1.6,8.4,1.1s.4,1.4.4,1.5v6.9l-2.2-.2c-.6-3.5,1.9-10-4.3-8.2v8.3c-.1,0-2.3,0-2.3,0v-9.5Z"/>
      <path d="M101.1,19.6l-.9,1.6c-1.2-.5-3.3-1.2-4.3,0s-.4,3.8-.3,4.6c.3,2.3,3.3,1.6,4.8.9l1.1,1.6c-2.8,1.9-7.7,1.7-8.2-2.4s-.1-2.6,0-3.6c.3-4.2,4.8-4.6,7.9-2.8Z"/>
      <path d="M48.9,29.2h-2s-.2-.3-.2-.3v-11.6c.3-1.4,1.7-2.6,3.1-2.7,2.2-.3,2,.2,1.9,2.1-1.9-.6-2.9.4-2.8,2.3h2.6v2h-2.4l-.2.2v8.1Z"/>
      <path d="M131,14.9v4.6c2.7-1.3,6.7-1,7.2,2.6s.2,4.1-.2,5.2c-1.1,2.9-5.6,2.6-7.9,1.4v-13.7h1ZM131,20.4v7.8c1.6.2,3.9.8,5.2-.2s1.3-5.1.8-6.6c-.8-2.3-4.3-2.2-6-.9Z"/>
      <path d="M69.9,20.6h-3c-.1,0-.6.3-.7.4v8.2h-2.3v-9.8c1.8-.8,3.8-1,5.8-.6.5.2.2,1.3.3,1.8Z"/>
      <path d="M127,28.8c-2.4.6-6.6,1.5-7.9-1.4-1.8-4.1,4.1-5.1,6.9-4.2.4-4.3-3.2-4.4-6.3-2.9l-.3-.8c1.8-1,5.2-1.5,6.6.2s.6,6.6.9,9.1ZM126,28.2v-3.8c-1.7-.8-6.2-.9-6.2,1.8s4.3,2.4,6.2,2Z"/>
      <path d="M147.7,19.6l-.6.8c-1.7-1.3-6.6-1.4-5.6,1.8s6.8.9,6.7,4.5-6.2,3.6-7.9,1.3l.2-.6c.5,0,.8.5,1,.6,1.6.7,5.4,1,5.6-1.4s-6.7-1.4-6.7-5.2,5.1-3.1,7.2-1.9Z"/>
      <path d="M114.9,14.9v12.1c0,0,.5,1.1.5,1.1.5.5,1.8.4,2.5.4v.8c-1.6.8-3.9-.6-3.9-2.3v-12.1h1Z"/>
    </g>
  </g>
</svg>