<?xml version="1.0" encoding="UTF-8"?>
<svg id="Layer_1" xmlns="http://www.w3.org/2000/svg" version="1.1" viewBox="0 0 157 44">
  <!-- Generator: Adobe Illustrator 29.4.0, SVG Export Plug-In . SVG Version: 2.1.0 Build 152)  -->
  <path d="M46.1,29.5l4.5-11.8h1.2l4.5,11.8h-1.2l-1.1-3h-5.7l-1.1,3h-1.1ZM48.5,25.7h5.1l-2.6-6.9-2.5,6.9Z"/>
  <path d="M56.2,29.7h-1.2c0,0-.2,0-.2-.1l-1.1-2.9h-5.4l-1.1,2.9c0,0,0,.1-.2.1h-1.1s-.1,0-.2,0,0-.1,0-.2l4.5-11.8c0,0,0-.1.2-.1h1.2c0,0,.2,0,.2.1l4.5,11.8s0,.1,0,.2c0,0,0,0,0,0ZM55.2,29.3h.7l-4.3-11.4h-.9l-4.3,11.4h.7l1.1-2.9c0,0,0-.1.2-.1h5.7c0,0,.2,0,.2.1l1,2.9ZM53.7,25.9h-5.1s-.1,0-.2,0c0,0,0-.1,0-.2l2.5-6.9c0,0,0-.1.2-.1s.2,0,.2.1l2.6,6.9s0,.1,0,.2c0,0,0,0,0,0ZM48.9,25.5h4.5l-2.3-6.1-2.3,6.1Z"/>
  <path d="M66.2,28.9c1.4,0,2.4-.6,2.4-1.8v-.9h1v1.1c0,1.5-1.2,2.4-3.4,2.4s-3.6-.9-3.6-2.4v-4.4c0-1.5,1.2-2.4,3.6-2.4s3.4.9,3.4,2.4v1.2h-1v-1.1c0-1.3-.9-1.8-2.4-1.8s-2.5.6-2.5,1.8v4c0,1.3,1,1.9,2.5,1.9Z"/>
  <path d="M66.2,29.8c-2.5,0-3.8-.9-3.8-2.6v-4.4c0-1.7,1.3-2.6,3.8-2.6s3.6,1,3.6,2.6v1.2c0,0,0,.2-.2.2h-1c0,0-.2,0-.2-.2v-1.1c0-1.1-.7-1.7-2.2-1.7s-2.3.5-2.3,1.7v4c0,1.1.7,1.7,2.3,1.7s2.2-.2,2.2-1.7v-.9c0,0,0-.2.2-.2h1c0,0,.2,0,.2.2v1.1c0,1.7-1.3,2.6-3.6,2.6ZM66.2,20.6c-1.5,0-3.4.4-3.4,2.2v4.4c0,1.8,1.8,2.2,3.4,2.2s3.2-.8,3.2-2.2v-.9h-.6v.7c0,1.3-1,2.1-2.6,2.1s-2.7-1.1-2.7-2.1v-4c0-1.4.9-2.1,2.7-2.1s2.6,1.1,2.6,2.1v.8h.6v-1c0-1.4-1.2-2.2-3.2-2.2Z"/>
  <path d="M72.3,29.5v-11.8h1v3.6c.8-.4,1.9-.7,3.1-.7,1.7,0,2.5.8,2.5,2.2v6.8h-1.1v-6.7c0-1.2-.6-1.6-1.7-1.6s-2,.4-2.8.8v7.5h-1.1Z"/>
  <path d="M78.8,29.7h-1c0,0-.2,0-.2-.2v-6.7c0-1-.5-1.4-1.5-1.4s-2.1.5-2.6.7v7.4c0,0,0,.2-.2.2h-1.1c0,0-.2,0-.2-.2v-11.8c0,0,0-.2.2-.2h1c0,0,.2,0,.2.2v3.2c.7-.3,1.8-.6,2.8-.6,1.8,0,2.7.9,2.7,2.4v6.8c0,0,0,.2-.2.2ZM78,29.3h.6v-6.7c0-.6-.2-1.1-.6-1.5-.4-.4-1-.6-1.8-.6s-2.2.4-3,.7c0,0-.1,0-.2,0,0,0,0,0,0-.2v-3.3h-.6v11.4h.6v-7.3c0,0,0-.1.1-.2.5-.2,1.8-.8,2.9-.8s1.9.6,1.9,1.8v6.5h0Z"/>
  <path d="M85,28.9c1.6,0,2.5-.6,2.5-2v-.4h1v.6c0,1.6-1.3,2.6-3.6,2.6s-3.4-.9-3.4-2.6v-4.1c0-1.6,1.2-2.6,3.4-2.6s3.6.9,3.6,2.6v2.4h-6v1.5c0,1.4.7,2,2.4,2ZM82.6,24.7h4.9v-1.5c0-1.4-1-2-2.5-2s-2.4.6-2.4,2v1.5Z"/>
  <path d="M85,29.8c-1.1,0-2-.2-2.6-.7-.6-.5-1-1.2-1-2.1v-4.1c0-.9.3-1.6,1-2.1.6-.5,1.5-.7,2.6-.7,2.4,0,3.8,1,3.8,2.8v2.4c0,0,0,.2-.2.2h-5.8v1.3c0,1.3.6,1.8,2.2,1.8s2.4-.6,2.4-1.8v-.4c0,0,0-.2.2-.2h1c0,0,.2,0,.2.2v.6c0,1.8-1.4,2.8-3.7,2.8ZM85,20.6c-1,0-1.8.2-2.4.6s-.8,1-.8,1.7v4.1c0,.7.3,1.3.8,1.7.6.4,1.4.6,2.4.6,2.2,0,3.4-.9,3.4-2.4v-.4h-.6v.2c0,1.4-1,2.2-2.8,2.2s-2.6-.7-2.6-2.2v-1.5c0,0,0-.2.2-.2h5.8v-2.2c0-1.5-1.2-2.4-3.3-2.4ZM87.6,24.9h-4.9c0,0-.2,0-.2-.2v-1.5c0-1.5.8-2.2,2.6-2.2s2.8.8,2.8,2.2v1.5c0,0-.1.2-.2.2ZM82.9,24.5h4.5v-1.3c0-1.2-.8-1.8-2.4-1.8s-2.2.5-2.2,1.8v1.3Z"/>
  <path d="M92.1,21.1c.6-.3,1.7-.7,2.7-.7s1.8.3,2.2.9c.9-.5,2-.9,3.1-.9,1.7,0,2.6.9,2.6,2.4v6.7h-1v-6.6c0-1.1-.5-1.8-1.7-1.8s-1.8.3-2.6.8c0,.2,0,.5,0,.8v6.7h-1v-6.6c0-1.1-.5-1.8-1.7-1.8s-1.8.3-2.5.7v7.6h-1v-9h.8v.6Z"/>
  <path d="M102.8,29.7h-1c0,0-.2,0-.2-.2v-6.6c0-1.1-.5-1.6-1.5-1.6s-1.5.2-2.4.7c0,.2,0,.5,0,.7v6.7c0,0,0,.2-.2.2h-1c0,0-.2,0-.2-.2v-6.6c0-1.1-.5-1.6-1.5-1.6s-1.8.3-2.3.6v7.5c0,0,0,.2-.2.2h-1c0,0-.2,0-.2-.2v-9c0,0,0-.2.2-.2h.8c0,0,.2,0,.2.1v.4c.8-.3,1.7-.6,2.6-.6s1.8.3,2.3.8c1.1-.6,2.1-.8,3.1-.8,1.8,0,2.8,1,2.8,2.5v6.7c-.1.1-.2.2-.4.2ZM102,29.3h.6v-6.5c0-1.4-.8-2.1-2.4-2.1s-2,.3-3.1.9c0,0-.2,0-.3,0-.4-.5-1.1-.8-2.1-.8s-1.9.4-2.6.7c0,0-.1,0-.2,0,0,0,0,0,0-.1v-.5h-.5v8.6h.6v-7.4c0,0,0-.1,0-.2.6-.3,1.4-.7,2.6-.7s1.9.7,1.9,2v6.3h.6v-6.5c0-.2,0-.5,0-.7,0,0,0-.2,0-.2,1-.6,1.9-.9,2.7-.9,1.2,0,1.9.7,1.9,2v6.2h0Z"/>
  <path d="M112.5,20.6l-3.7,9.8c-.7,2-1.9,2.1-3.1,2.1s-.6,0-.9,0v-.7c.2,0,.5,0,.8,0,.7,0,1.6-.2,2.1-1.6l.2-.7-3.5-8.9h1.1l2.9,7.7,2.7-7.7h1.2Z"/>
  <path d="M105.8,32.8c-.4,0-.7,0-.9,0,0,0-.1,0-.1-.2v-.7s0-.1,0-.2.1,0,.2,0c.2,0,.6,0,.8,0,.7,0,1.5-.2,1.9-1.5l.2-.7-3.4-8.8s0-.1,0-.2c0,0,0,0,.2,0h1.1c0,0,.2,0,.2.1l2.7,7.2,2.5-7.2c0,0,0-.1.2-.1h1.2s.1,0,.2,0c0,0,0,.1,0,.2l-3.7,9.9c-.8,2.1-2.1,2.3-3.2,2.3ZM105.1,32.3c.2,0,.4,0,.7,0,1.1,0,2.1-.1,2.8-2l3.6-9.6h-.7l-2.6,7.5c0,0,0,.1-.2.1s-.2,0-.2-.1l-2.8-7.5h-.7l3.4,8.6h0c0,.1-.2.9-.2.9-.6,1.6-1.5,1.8-2.3,1.8s-.5,0-.6,0v.3h0Z"/>
  <path d="M58.8,29.5v-11.8h1v11.8h-1Z"/>
  <path d="M59.8,29.7h-1c0,0-.2,0-.2-.2v-11.8c0,0,0-.2.2-.2h1c0,0,.2,0,.2.2v11.8c0,0,0,.2-.2.2ZM59,29.3h.6v-11.5h-.6v11.5Z"/>
  <path d="M118.6,29.5v-11.8h2.9c3.2,0,4.5,1.2,4.5,3.2v.7c0,1.9-1.2,3.1-4.5,3.1h-1.8v4.8h-1.2ZM119.8,18.4v5.5h1.8c2.3,0,3.3-.6,3.3-2.3v-.7c0-1.7-1-2.5-3.2-2.5h-1.9Z"/>
  <path d="M119.8,29.9h-1.2c-.2,0-.5-.2-.5-.5v-11.8c0-.2.2-.5.5-.5h2.9c1.7,0,2.9.3,3.7,1,.8.6,1.2,1.5,1.2,2.7v.7c0,1.2-.4,2-1.2,2.6-.8.6-2,.9-3.7.9h-1.3v4.3c0,.3-.2.5-.5.5ZM119.1,29h.2v-4.3c0-.2,0-.3.2-.4-.1,0-.2-.2-.2-.4v-5.4c0-.1,0-.2.1-.3h-.4v10.9ZM124.2,18.5s.1,0,.2.1c.6.5,1,1.2,1,2.3v.7c0,1-.3,1.7-1,2.1.1,0,.3-.1.4-.2.6-.4.8-1,.8-1.8v-.8c0-.8-.2-1.8-1.4-2.3ZM120.3,23.4h1.3c2.4,0,2.9-.7,2.9-1.8v-.7c0-1.1-.3-2-2.8-2h-1.4v4.6Z"/>
  <path d="M127.7,26.9c0-1.5,1.1-2.3,3.3-2.3h2.5v-1.9c0-1.1-.6-1.6-2.1-1.6s-2,.5-2,1.6v.4h-1v-.5c0-1.6,1-2.3,3.1-2.3s3.1.8,3.1,2.3v6.8h-.8l-.2-.6c-.9.5-2.1.7-3.1.7-1.8,0-2.7-.7-2.7-2.2v-.5h0ZM133.4,28.2v-2.9h-2.4c-1.6,0-2.3.5-2.3,1.5v.5c0,1,.6,1.5,1.8,1.5s2-.2,2.8-.6Z"/>
  <path d="M130.3,30c-1,0-1.8-.2-2.3-.6-.6-.5-.8-1.1-.8-2v-.5c0-1.2.6-2.7,3.7-2.7h2v-1.4c0-.6-.1-1.1-1.7-1.1s-1.6.5-1.6,1.1v.4c0,.2-.2.5-.5.5h-1c-.2,0-.5-.2-.5-.5v-.5c0-.9.3-1.6,1-2.1.6-.4,1.4-.6,2.6-.6s2.1.2,2.7.6c.6.5.9,1.1.9,2v6.8c0,.2-.2.5-.5.5h-.8c-.2,0-.4-.1-.5-.3h0c-.9.2-1.9.4-2.9.4ZM133.8,28.5c0,0,.2.1.2.3v.2s0-6.3,0-6.3c0-.6,0-1.1-.7-1.4.4.3.6.8.6,1.5v1.9c0,.1,0,.3-.2.4,0,0,.2.2.2.4v2.9s0,.2,0,.3ZM128.6,25.7c-.4.4-.5.8-.5,1.2v.5c0,.6.2,1,.5,1.2,0,0,0,0,.1,0-.4-.4-.5-.9-.5-1.3v-.6c0-.5.1-.9.3-1.2ZM131,25.8c-1.7,0-1.8.5-1.8,1.1v.5c0,.5,0,1,1.4,1s1.7-.2,2.4-.5v-2.1h-2ZM128.7,22.7h0c0-.6.1-1,.4-1.2-.3.2-.5.6-.5,1.2Z"/>
  <path d="M144.1,20.6l-3.7,9.8c-.7,2-1.9,2.1-3.1,2.1s-.6,0-.9,0v-.7c.2,0,.5,0,.8,0,.7,0,1.6-.2,2.1-1.6l.2-.7-3.5-8.9h1.1l2.9,7.7,2.7-7.7h1.2Z"/>
  <path d="M137.4,33c-.5,0-.7,0-1,0-.2,0-.3-.2-.3-.5v-.7c0-.1,0-.3.2-.4,0,0,.3,0,.4,0,.2,0,.5,0,.7,0,.6,0,1.3,0,1.7-1.3l.2-.6-3.4-8.7c0-.1,0-.3,0-.4,0-.1.2-.2.4-.2h1.1c.2,0,.4.1.4.3l2.5,6.5,2.3-6.5c0-.2.2-.3.4-.3h1.2c.1,0,.3,0,.4.2,0,.1,0,.3,0,.4l-3.7,9.8c-.8,2.2-2.1,2.5-3.5,2.5ZM136.9,21.1l3.2,8.3c0,0,0,.2,0,.3l-.2.7c0,.3-.2.6-.4.8.1-.2.3-.5.4-.9l.6-1.8c0,.1-.2.2-.4.2s-.4-.1-.4-.3l-2.8-7.4h0ZM143.3,21.1l-2.5,7.2,2.6-7.2h-.1Z"/>
  <path d="M19.8,21.9v12.9h-7.4l7.4-12.9Z"/>
  <path d="M34.4,21.9v12.9h7.4l-7.4-12.9Z"/>
  <path d="M27.6,24.8c1.4,0,2.8,0,3.7.5v-8.7l-4.3-7.4-4.2,7.4v10.1c.8-.7,2.7-1.7,4.8-1.8Z"/>
  <path d="M31.4,28.6c-.9-.6-1.9-.9-3.1-.9-2.1,0-3.7,1.3-4.7,2.9-.4.7-.6,1.8-.6,2.6s0,1.2.3,1.7h8.2v-6.2Z"/>
</svg>